# 3ds Max Wavefront OBJ Exporter v0.97b - (c)2007 guruware
# File Created: 13.04.2016 22:08:11

mtllib beveledhex.mtl

#
# object default
#

v  0.9804 0.1058 0.0000
v  0.9804 -0.1058 -0.0000
v  0.4902 -0.1058 -0.8491
v  0.4902 0.1058 -0.8491
v  0.4902 0.1058 0.8491
v  0.4902 -0.1058 0.8491
v  -0.4902 0.1058 0.8491
v  -0.4902 -0.1058 0.8491
v  -0.9804 0.1058 0.0000
v  -0.9804 -0.1058 0.0000
v  -0.4902 0.1058 -0.8491
v  -0.4902 -0.1058 -0.8491
v  0.9514 -0.1837 -0.0000
v  0.4757 -0.1837 0.8240
v  0.4757 -0.1837 -0.8240
v  -0.4757 -0.1837 -0.8240
v  -0.9514 -0.1837 0.0000
v  -0.4757 -0.1837 0.8240
v  -0.9514 0.1837 0.0000
v  -0.4757 0.1837 0.8240
v  -0.4757 0.1837 -0.8240
v  0.4757 0.1837 0.8240
v  0.4757 0.1837 -0.8240
v  0.9514 0.1837 -0.0000
v  0.5000 0.1479 -0.8660
v  1.0000 0.1479 -0.0000
v  0.5000 0.1479 0.8660
v  -0.5000 0.1479 0.8660
v  -1.0000 0.1479 0.0000
v  -0.5000 0.1479 -0.8660
v  1.0000 -0.1479 -0.0000
v  0.5000 -0.1479 -0.8660
v  -0.5000 -0.1479 -0.8660
v  -1.0000 -0.1479 0.0000
v  -0.5000 -0.1479 0.8660
v  0.5000 -0.1479 0.8660
# 36 vertices

vn 0.8660 -0.0000 -0.5000
vn 0.8660 -0.0000 0.5000
vn 0.0000 0.0000 1.0000
vn -0.8660 0.0000 0.5000
vn -0.8660 0.0000 -0.5000
vn 0.0000 0.0000 -1.0000
vn 0.0000 -1.0000 -0.0000
vn -0.0000 -1.0000 -0.0000
vn 0.0000 1.0000 0.0000
vn 0.0000 1.0000 -0.0000
vn -0.0000 1.0000 0.0000
vn 0.8032 -0.3739 -0.4637
vn 0.8032 -0.3739 0.4637
vn 0.0000 -0.3739 0.9275
vn -0.8032 -0.3739 0.4637
vn -0.8032 -0.3739 -0.4637
vn 0.0000 -0.3739 -0.9275
vn 0.8032 0.3739 -0.4637
vn -0.0000 0.3739 -0.9275
vn -0.8032 0.3739 -0.4637
vn -0.8032 0.3739 0.4637
vn 0.0000 0.3739 0.9275
vn 0.8032 0.3739 0.4637
vn 0.5612 -0.7617 -0.3240
vn 0.5612 -0.7617 0.3240
vn 0.0000 -0.7617 0.6480
vn -0.5612 -0.7617 0.3240
vn -0.5612 -0.7617 -0.3240
vn -0.0000 -0.7617 -0.6480
vn 0.5612 0.7617 -0.3240
vn -0.0000 0.7617 -0.6480
vn -0.5612 0.7617 -0.3240
vn -0.5612 0.7617 0.3240
vn 0.0000 0.7617 0.6480
vn 0.5612 0.7617 0.3240
# 35 vertex normals

vt 0.7230 0.1669 0.0000
vt 0.7230 0.0183 0.0000
vt 0.9442 0.0183 0.0000
vt 0.9442 0.1669 0.0000
vt 0.2805 0.1669 0.0000
vt 0.2805 0.0183 0.0000
vt 0.0592 0.1669 0.0000
vt 0.0592 0.0183 0.0000
vt 0.9306 0.5856 0.0005
vt 0.7153 0.2126 0.0005
vt 0.7153 0.9585 0.0005
vt 0.2847 0.9585 0.0005
vt 0.0694 0.5856 0.0005
vt 0.2847 0.2126 0.0005
vt 0.0694 0.5856 0.9995
vt 0.2847 0.2126 0.9995
vt 0.2847 0.9585 0.9995
vt 0.7153 0.2126 0.9995
vt 0.7153 0.9585 0.9995
vt 0.9306 0.5856 0.9995
vt 0.7263 0.9776 0.9022
vt 0.9526 0.5856 0.9022
vt 0.9438 0.5856 0.7878
vt 0.7219 0.9699 0.7878
vt 0.7263 0.1936 0.9022
vt 0.7219 0.2013 0.7878
vt 0.2737 0.1936 0.9022
vt 0.2781 0.2013 0.7878
vt 0.0474 0.5856 0.9022
vt 0.0562 0.5856 0.7878
vt 0.2737 0.9776 0.9022
vt 0.2781 0.9699 0.7878
vt 0.9526 0.5856 0.0978
vt 0.7263 0.9776 0.0978
vt 0.7219 0.9699 0.2122
vt 0.9438 0.5856 0.2122
vt 0.2737 0.9776 0.0978
vt 0.2781 0.9699 0.2122
vt 0.0474 0.5856 0.0978
vt 0.0562 0.5856 0.2122
vt 0.2737 0.1936 0.0978
vt 0.2781 0.2013 0.2122
vt 0.7263 0.1936 0.0978
vt 0.7219 0.2013 0.2122
# 44 texture coords

g default
usemtl _hexNone
s off
f 1/1/1 2/2/1 3/3/1 4/4/1 
f 5/5/2 6/6/2 2/2/2 1/1/2 
f 7/7/3 8/8/3 6/6/3 5/5/3 
f 9/5/4 10/6/4 8/8/4 7/7/4 
f 11/1/5 12/2/5 10/6/5 9/5/5 
f 4/4/6 3/3/6 12/2/6 11/1/6 
f 13/9/7 14/10/7 15/11/7 
f 15/11/8 14/10/8 16/12/8 
f 17/13/8 16/12/8 18/14/8 
f 14/10/8 18/14/8 16/12/8 
f 19/15/9 20/16/9 21/17/9 
f 20/16/9 22/18/9 21/17/9 
f 23/19/10 21/17/10 24/20/10 
f 24/20/11 21/17/11 22/18/11 
f 25/21/12 26/22/12 1/23/12 4/24/12 
f 26/22/13 27/25/13 5/26/13 1/23/13 
f 27/25/14 28/27/14 7/28/14 5/26/14 
f 28/27/15 29/29/15 9/30/15 7/28/15 
f 29/29/16 30/31/16 11/32/16 9/30/16 
f 30/31/17 25/21/17 4/24/17 11/32/17 
f 31/33/18 32/34/18 3/35/18 2/36/18 
f 32/34/19 33/37/19 12/38/19 3/35/19 
f 33/37/20 34/39/20 10/40/20 12/38/20 
f 34/39/21 35/41/21 8/42/21 10/40/21 
f 35/41/22 36/43/22 6/44/22 8/42/22 
f 36/43/23 31/33/23 2/36/23 6/44/23 
f 32/34/24 31/33/24 13/9/24 15/11/24 
f 31/33/25 36/43/25 14/10/25 13/9/25 
f 36/43/26 35/41/26 18/14/26 14/10/26 
f 35/41/27 34/39/27 17/13/27 18/14/27 
f 34/39/28 33/37/28 16/12/28 17/13/28 
f 33/37/29 32/34/29 15/11/29 16/12/29 
f 26/22/30 25/21/30 23/19/30 24/20/30 
f 25/21/31 30/31/31 21/17/31 23/19/31 
f 30/31/32 29/29/32 19/15/32 21/17/32 
f 29/29/33 28/27/33 20/16/33 19/15/33 
f 28/27/34 27/25/34 22/18/34 20/16/34 
f 27/25/35 26/22/35 24/20/35 22/18/35 
# 30 polygons - 8 triangles

